<?xml version="1.0" encoding="UTF-8" standalone="no"?>
<svg
   xmlns:dc="http://purl.org/dc/elements/1.1/"
   xmlns:cc="http://creativecommons.org/ns#"
   xmlns:rdf="http://www.w3.org/1999/02/22-rdf-syntax-ns#"
   xmlns:svg="http://www.w3.org/2000/svg"
   xmlns="http://www.w3.org/2000/svg"
   xmlns:sodipodi="http://sodipodi.sourceforge.net/DTD/sodipodi-0.dtd"
   xmlns:inkscape="http://www.inkscape.org/namespaces/inkscape"
   width="24.6"
   height="16"
   version="1.1"
   id="svg846"
   sodipodi:docname="Qwars-background.svg"
   inkscape:version="0.92.4 (5da689c313, 2019-01-14)">
  <metadata
     id="metadata852">
    <rdf:RDF>
      <cc:Work
         rdf:about="">
        <dc:format>image/svg+xml</dc:format>
        <dc:type
           rdf:resource="http://purl.org/dc/dcmitype/StillImage" />
        <dc:title></dc:title>
      </cc:Work>
    </rdf:RDF>
  </metadata>
  <defs
     id="defs850" />
  <sodipodi:namedview
     pagecolor="#ffffff"
     bordercolor="#666666"
     borderopacity="1"
     objecttolerance="10"
     gridtolerance="10"
     guidetolerance="10"
     inkscape:pageopacity="0"
     inkscape:pageshadow="2"
     inkscape:window-width="1920"
     inkscape:window-height="1056"
     id="namedview848"
     showgrid="false"
     inkscape:zoom="54.7"
     inkscape:cx="12.3"
     inkscape:cy="8"
     inkscape:window-x="0"
     inkscape:window-y="0"
     inkscape:window-maximized="1"
     inkscape:current-layer="svg846"
     fit-margin-top="0"
     fit-margin-left="0"
     fit-margin-right="0"
     fit-margin-bottom="0" />
  <path
     d="M 8.01,0 C 5.61,0 3.68,0.737 2.21,2.22 0.733,3.69 3e-4,5.61 3e-4,8 c 0,2.4 0.7327,4.3 2.2097,5.8 1.47,1.5 3.4,2.2 5.8,2.2 1.01,0 1.97,-0.2 2.89,-0.5 -0.4,0 -0.4,-0.1 -0.6,-0.5 L 10.1,14 C 9.35,14.2 8.67,14.2 7.99,14.2 6.23,14.2 4.81,13.7 3.74,12.6 2.66,11.4 2.12,9.88 2.12,8 2.12,6.11 2.66,4.6 3.74,3.46 4.83,2.29 6.25,1.71 8.01,1.71 c 1.77,0 3.19,0.58 4.29,1.75 1.1,1.14 1.6,2.65 1.6,4.52 0,1.94 -0.6,3.52 -1.8,4.82 l -2,-1.6 1.1,4 4.6,0.3 -2.1,-1.6 C 15.2,12.3 16,10.4 16,7.95 16,5.59 15.3,3.66 13.8,2.19 12.3,0.729 10.4,0 8.01,0 Z"
     id="path844"
     style="opacity:0.2"
     inkscape:connector-curvature="0" />
  <path
     id="path873"
     d="M 12.4,3.2 C 10.5,3.2 8.99,3.79 7.77,4.98 6.59,6.15 6,7.69 6,9.6 c 0,1.9 0.59,3.4 1.77,4.6 1.22,1.2 2.73,1.8 4.63,1.8 0.8,0 1.6,-0.2 2.3,-0.4 -0.3,0 -0.3,-0.1 -0.5,-0.4 L 14.1,14.4 C 13.5,14.6 13,14.6 12.4,14.6 11,14.6 9.89,14.2 8.99,13.3 8.09,12.3 7.7,11.1 7.7,9.6 7.7,8.09 8.09,6.88 8.99,5.97 9.89,5.03 11,4.57 12.4,4.57 c 1.4,0 2.6,0.46 3.4,1.4 0.9,0.91 1.3,2.12 1.3,3.61 0,1.52 -0.5,2.82 -1.4,3.82 L 14.1,12.2 15,15.4 18.6,15.6 17,14.3 C 18.2,13 18.8,11.5 18.8,9.56 18.8,7.67 18.2,6.13 17,4.95 15.8,3.78 14.3,3.2 12.4,3.2 Z"
     inkscape:connector-curvature="0"
     style="opacity:0.4;stroke-width:0.8" />
  <path
     style="opacity:0.6;stroke-width:0.64"
     inkscape:connector-curvature="0"
     d="m 15.1,5.76 c -1.5,0 -2.7,0.47 -3.7,1.42 -0.9,0.94 -1.41,2.17 -1.41,3.72 0,1.5 0.51,2.7 1.41,3.7 1,0.9 2.2,1.4 3.7,1.4 0.7,0 1.3,-0.2 1.9,-0.3 -0.3,0 -0.3,-0.1 -0.4,-0.3 l -0.1,-0.7 c -0.5,0.2 -0.9,0.2 -1.4,0.2 -1.1,0 -2,-0.3 -2.7,-1.1 -0.7,-0.8 -1,-1.7 -1,-2.9 0,-1.23 0.3,-2.2 1,-2.92 0.7,-0.76 1.6,-1.12 2.7,-1.12 1.1,0 2.1,0.36 2.7,1.12 0.8,0.72 1.1,1.69 1.1,2.92 0,1.2 -0.4,2.2 -1.1,3 l -1.3,-0.9 0.7,2.5 2.9,0.2 -1.3,-1.1 c 1,-1 1.4,-2.2 1.4,-3.8 0,-1.46 -0.4,-2.7 -1.4,-3.64 -1,-0.94 -2.2,-1.4 -3.7,-1.4 z"
     id="path875" />
  <path
     id="path877"
     d="m 18.1,7.81 c -1.2,0 -2.2,0.37 -3,1.13 C 14.4,9.7 14,10.7 14,11.9 c 0,1.2 0.4,2.2 1.1,3 0.8,0.7 1.8,1.1 3,1.1 0.5,0 1,-0.2 1.5,-0.2 -0.2,0 -0.2,-0.1 -0.3,-0.3 L 19.2,15 c -0.4,0.1 -0.7,0.1 -1.1,0.1 -0.9,0 -1.6,-0.2 -2.2,-0.9 -0.5,-0.6 -0.8,-1.3 -0.8,-2.3 0,-1 0.3,-1.7 0.8,-2.32 0.6,-0.6 1.3,-0.89 2.2,-0.89 0.9,0 1.7,0.29 2.1,0.89 0.7,0.62 0.9,1.32 0.9,2.32 0,1 -0.3,1.8 -0.9,2.4 l -1,-0.7 0.6,2 2.3,0.2 -1.1,-0.9 c 0.8,-0.8 1.2,-1.8 1.2,-3.1 C 22.2,10.7 21.8,9.68 21,8.93 20.2,8.18 19.3,7.81 18.1,7.81 Z"
     inkscape:connector-curvature="0"
     style="opacity:0.8;stroke-width:0.512" />
  <path
     style="stroke-width:0.41"
     inkscape:connector-curvature="0"
     d="m 21.3,9.45 c -1,0 -1.8,0.29 -2.4,0.95 -0.6,0.6 -0.9,1.4 -0.9,2.3 0,1 0.3,1.8 0.9,2.4 0.6,0.6 1.4,0.9 2.4,0.9 0.4,0 0.8,-0.2 1.2,-0.2 -0.2,0 -0.2,0 -0.3,-0.2 v -0.4 c -0.4,0.1 -0.6,0.1 -0.9,0.1 -0.7,0 -1.3,-0.2 -1.8,-0.7 -0.4,-0.5 -0.6,-1.1 -0.6,-1.9 0,-0.8 0.2,-1.3 0.6,-1.8 0.5,-0.5 1.1,-0.7 1.8,-0.7 0.7,0 1.3,0.2 1.7,0.7 0.5,0.5 0.7,1 0.7,1.8 0,0.8 -0.3,1.5 -0.7,1.9 l -0.8,-0.5 0.4,1.6 1.9,0.1 -0.9,-0.7 c 0.6,-0.6 1,-1.4 1,-2.5 0,-0.8 -0.4,-1.7 -1,-2.3 C 23,9.74 22.2,9.45 21.3,9.45 Z"
     id="path879" />
</svg>
